<svg xmlns="http://www.w3.org/2000/svg" width="95" height="39" viewBox="0 0 95 39" fill="none">
<g clip-path="url(#clip0_842_744)">
<rect width="95" height="95" rx="19" fill="#AFD082"/>
<path d="M36.1653 18.3807L34.8102 18.7642C34.725 18.5384 34.5993 18.3189 34.4331 18.1058C34.2711 17.8885 34.0495 17.7095 33.7683 17.5689C33.487 17.4283 33.127 17.358 32.688 17.358C32.0872 17.358 31.5865 17.4964 31.1859 17.7734C30.7896 18.0462 30.5914 18.3935 30.5914 18.8153C30.5914 19.1903 30.7278 19.4865 31.0005 19.7038C31.2733 19.9212 31.6994 20.1023 32.2789 20.2472L33.7363 20.6051C34.6142 20.8182 35.2683 21.1442 35.6987 21.5831C36.1291 22.0178 36.3443 22.5781 36.3443 23.2642C36.3443 23.8267 36.1824 24.3295 35.8585 24.7727C35.5389 25.2159 35.0914 25.5653 34.5162 25.821C33.9409 26.0767 33.2718 26.2045 32.5091 26.2045C31.5076 26.2045 30.6788 25.9872 30.0225 25.5526C29.3663 25.1179 28.9508 24.483 28.7761 23.6477L30.2079 23.2898C30.3443 23.8182 30.6021 24.2145 30.9814 24.4787C31.3649 24.7429 31.8656 24.875 32.4835 24.875C33.1866 24.875 33.7449 24.7259 34.1582 24.4276C34.5758 24.125 34.7846 23.7628 34.7846 23.3409C34.7846 23 34.6653 22.7145 34.4267 22.4844C34.188 22.25 33.8216 22.0753 33.3272 21.9602L31.6909 21.5767C30.7917 21.3636 30.1312 21.0334 29.7093 20.5859C29.2917 20.1342 29.0829 19.5696 29.0829 18.892C29.0829 18.3381 29.2385 17.848 29.5495 17.4219C29.8649 16.9957 30.2931 16.6612 30.8343 16.4183C31.3798 16.1754 31.9977 16.054 32.688 16.054C33.6596 16.054 34.4224 16.267 34.9764 16.6932C35.5346 17.1193 35.9309 17.6818 36.1653 18.3807ZM41.5043 26.2301C40.8821 26.2301 40.3175 26.1129 39.8104 25.8786C39.3033 25.6399 38.9006 25.2969 38.6023 24.8494C38.304 24.3977 38.1548 23.8523 38.1548 23.2131C38.1548 22.6506 38.2656 22.1946 38.4872 21.8452C38.7088 21.4915 39.005 21.2145 39.3757 21.0142C39.7464 20.8139 40.1555 20.6648 40.603 20.5668C41.0547 20.4645 41.5085 20.3835 41.9645 20.3239C42.5611 20.2472 43.0447 20.1896 43.4155 20.1513C43.7905 20.1087 44.0632 20.0384 44.2337 19.9403C44.4084 19.8423 44.4957 19.6719 44.4957 19.429V19.3778C44.4957 18.7472 44.3232 18.2571 43.978 17.9077C43.6371 17.5582 43.1193 17.3835 42.4247 17.3835C41.7045 17.3835 41.1399 17.5412 40.7308 17.8565C40.3217 18.1719 40.0341 18.5085 39.8679 18.8665L38.4361 18.3551C38.6918 17.7585 39.0327 17.294 39.4588 16.9616C39.8892 16.625 40.358 16.3906 40.8651 16.2585C41.3764 16.1222 41.8793 16.054 42.3736 16.054C42.6889 16.054 43.0511 16.0923 43.4602 16.169C43.8736 16.2415 44.272 16.3928 44.6555 16.6229C45.0433 16.853 45.3651 17.2003 45.6207 17.6648C45.8764 18.1293 46.0043 18.7514 46.0043 19.5312V26H44.4957V24.6705H44.419C44.3168 24.8835 44.1463 25.1115 43.9077 25.3544C43.669 25.5973 43.3516 25.804 42.9553 25.9744C42.5589 26.1449 42.0753 26.2301 41.5043 26.2301ZM41.7344 24.875C42.331 24.875 42.8338 24.7578 43.2429 24.5234C43.6563 24.2891 43.9673 23.9865 44.1761 23.6158C44.3892 23.245 44.4957 22.8551 44.4957 22.446V21.0653C44.4318 21.142 44.2912 21.2124 44.0739 21.2763C43.8608 21.3359 43.6136 21.3892 43.3324 21.4361C43.0554 21.4787 42.7848 21.517 42.5206 21.5511C42.2607 21.581 42.0497 21.6065 41.8878 21.6278C41.4957 21.679 41.1293 21.7621 40.7884 21.8771C40.4517 21.9879 40.179 22.1562 39.9702 22.3821C39.7656 22.6037 39.6634 22.9062 39.6634 23.2898C39.6634 23.8139 39.8572 24.2102 40.245 24.4787C40.6371 24.7429 41.1335 24.875 41.7344 24.875ZM56.4345 16.1818L52.8038 26H51.2697L47.639 16.1818H49.2754L51.9856 24.0057H52.0879L54.7981 16.1818H56.4345ZM62.1905 26.2045C61.2445 26.2045 60.4284 25.9957 59.7424 25.5781C59.0605 25.1562 58.5343 24.5682 58.1635 23.8139C57.7971 23.0554 57.6138 22.1733 57.6138 21.1676C57.6138 20.1619 57.7971 19.2756 58.1635 18.5085C58.5343 17.7372 59.0499 17.1364 59.7104 16.706C60.3752 16.2713 61.1507 16.054 62.0371 16.054C62.5485 16.054 63.0534 16.1392 63.552 16.3097C64.0506 16.4801 64.5044 16.7571 64.9135 17.1406C65.3226 17.5199 65.6486 18.0227 65.8915 18.6491C66.1344 19.2756 66.2559 20.0469 66.2559 20.9631V21.6023H58.6877V20.2983H64.7218C64.7218 19.7443 64.611 19.25 64.3894 18.8153C64.1721 18.3807 63.861 18.0376 63.4561 17.7862C63.0556 17.5348 62.5826 17.4091 62.0371 17.4091C61.4363 17.4091 60.9164 17.5582 60.4775 17.8565C60.0428 18.1506 59.7083 18.5341 59.4739 19.0071C59.2395 19.4801 59.1223 19.9872 59.1223 20.5284V21.3977C59.1223 22.1392 59.2502 22.7678 59.5059 23.2834C59.7658 23.7947 60.1259 24.1847 60.5861 24.4531C61.0463 24.7173 61.5811 24.8494 62.1905 24.8494C62.5868 24.8494 62.9448 24.794 63.2644 24.6832C63.5882 24.5682 63.8674 24.3977 64.1017 24.1719C64.3361 23.9418 64.5172 23.6562 64.6451 23.3153L66.1025 23.7244C65.949 24.2188 65.6912 24.6534 65.329 25.0284C64.9668 25.3991 64.5194 25.6889 63.9867 25.8977C63.454 26.1023 62.8553 26.2045 62.1905 26.2045Z" fill="white"/>
</g>
<defs>
<clipPath id="clip0_842_744">
<rect width="95" height="39" rx="19" fill="white"/>
</clipPath>
</defs>
</svg>